<?xml version="1.0" standalone="yes"?>

<svg version="1.1" viewBox="0.0 0.0 288.0 288.0" fill="none" stroke="none" stroke-linecap="square" stroke-miterlimit="10" xmlns="http://www.w3.org/2000/svg" xmlns:xlink="http://www.w3.org/1999/xlink"><clipPath id="p.0"><path d="m0 0l288.0 0l0 288.0l-288.0 0l0 -288.0z" clip-rule="nonzero"></path></clipPath><g clip-path="url(#p.0)"><path fill="#000000" fill-opacity="0.0" d="m0 0l288.0 0l0 288.0l-288.0 0z" fill-rule="nonzero"></path><path fill="#ffff00" d="m0 0l288.0 0l0 288.0l-288.0 0z" fill-rule="nonzero"></path><path fill="#000000" d="m244.18898 258.0315l0 16.125977l-225.07086 0l0 -16.125977z" fill-rule="nonzero"></path><path fill="#000000" d="m258.0315 19.11811l16.125977 0l0 225.07086l-16.125977 0z" fill-rule="nonzero"></path><path fill="#000000" fill-opacity="0.0" d="m37.259842 -39.29134l213.48032 0l0 199.40157l-213.48032 0z" fill-rule="nonzero"></path><path fill="#000000" d="m128.63484 63.64616q-13.75 0 -22.5625 5.609379q-8.8125 5.59375 -8.8125 16.953125q0 11.34375 8.8125 17.359375q8.8125 6.0 37.515625 12.9375q28.703125 6.9375 43.25 19.5q14.546875 12.546875 14.546875 36.984375q0 24.421875 -18.421875 39.640625q-18.421875 15.21875 -48.328125 15.21875q-43.78125 0 -77.6875 -30.171875l19.75 -23.765625q28.296875 24.5625 58.734375 24.5625q15.21875 0 24.15625 -6.53125q8.953125 -6.546875 8.953125 -17.359375q0 -10.8125 -8.40625 -16.8125q-8.40625 -6.015625 -28.96875 -10.953125q-20.5625 -4.953125 -31.25 -9.078125q-10.671875 -4.140625 -18.953125 -10.828125q-16.546875 -12.546875 -16.546875 -38.4375q0 -25.906254 18.8125 -39.92188q18.828125 -14.015625 46.609375 -14.015625q17.875 0 35.5 5.875q17.625 5.875 30.4375 16.546875l-16.8125 23.765629q-8.28125 -7.46875 -22.4375 -12.265625q-14.140625 -4.812504 -27.890625 -4.812504z" fill-rule="nonzero"></path></g></svg>

